<svg width="89" height="89" viewBox="0 0 89 89" fill="none" xmlns="http://www.w3.org/2000/svg">
<circle cx="44.5" cy="44.5" r="44.5" fill="#D7DFEA"/>
<path opacity="0.1" d="M13.2923 59.087C15.4943 64.393 18.7285 69.1563 22.787 73.0708C26.8455 76.9854 31.6386 79.9647 36.8583 81.8172C42.0779 83.6698 47.6088 84.3546 53.0953 83.8277C58.5819 83.3009 63.9029 81.5739 68.7164 78.7579C73.53 75.9419 77.7295 72.0991 81.0454 67.4764C84.3612 62.8537 86.7199 57.5533 87.9699 51.9158C89.2199 46.2784 89.3336 40.4285 88.3037 34.7422C87.2738 29.0558 85.123 23.6587 81.9896 18.8976L62.145 33.3139C63.3645 35.1669 64.2016 37.2675 64.6025 39.4806C65.0033 41.6938 64.959 43.9706 64.4725 46.1647C63.986 48.3588 63.068 50.4217 61.7775 52.2208C60.487 54.02 58.8525 55.5156 56.9791 56.6116C55.1056 57.7076 53.0347 58.3798 50.8993 58.5848C48.7639 58.7899 46.6113 58.5233 44.5798 57.8023C42.5483 57.0813 40.6828 55.9218 39.1033 54.3982C37.5237 52.8747 36.2649 51.0208 35.4079 48.9557L13.2923 59.087Z" fill="black"/>
<rect x="44.2014" y="37.0336" width="27.5086" height="27.3989" rx="10" transform="rotate(45 44.2014 37.0336)" fill="#FF6281"/>
<rect x="3" y="9" width="83" height="53" rx="16" fill="#FF6281"/>
<path opacity="0.1" d="M68 11H54.9319C39.0085 11 32.8593 31.7277 46.2064 40.4114L59.2745 48.9135C69.9182 55.8383 84 48.2002 84 35.5021V27C84 18.1634 76.8366 11 68 11Z" fill="white"/>
<path opacity="0.1" d="M74.5801 20.3868C76.8968 21.9312 80 20.2705 80 17.4861C80 15.5608 78.4392 14 76.5139 14C73.0647 14 71.7102 18.4735 74.5801 20.3868Z" fill="white"/>
<path d="M35.5469 38.832C35.5469 39.7413 35.2389 40.504 34.6229 41.12C34.0362 41.7067 33.2149 42 32.1589 42C31.1322 42 30.2962 41.7067 29.6509 41.12C29.0349 40.504 28.7269 39.7413 28.7269 38.832C28.7269 37.952 29.0349 37.2187 29.6509 36.632C30.2962 36.016 31.1322 35.708 32.1589 35.708C33.2149 35.708 34.0362 36.016 34.6229 36.632C35.2389 37.2187 35.5469 37.952 35.5469 38.832ZM47.793 38.832C47.793 39.7413 47.485 40.504 46.869 41.12C46.2823 41.7067 45.461 42 44.405 42C43.3783 42 42.5423 41.7067 41.897 41.12C41.281 40.504 40.973 39.7413 40.973 38.832C40.973 37.952 41.281 37.2187 41.897 36.632C42.5423 36.016 43.3783 35.708 44.405 35.708C45.461 35.708 46.2823 36.016 46.869 36.632C47.485 37.2187 47.793 37.952 47.793 38.832ZM60.039 38.832C60.039 39.7413 59.731 40.504 59.115 41.12C58.5284 41.7067 57.707 42 56.651 42C55.6244 42 54.7884 41.7067 54.143 41.12C53.527 40.504 53.219 39.7413 53.219 38.832C53.219 37.952 53.527 37.2187 54.143 36.632C54.7884 36.016 55.6244 35.708 56.651 35.708C57.707 35.708 58.5284 36.016 59.115 36.632C59.731 37.2187 60.039 37.952 60.039 38.832Z" fill="white"/>
</svg>
