<svg xmlns="http://www.w3.org/2000/svg" xmlns:xlink="http://www.w3.org/1999/xlink" width="3612" height="4051" viewBox="0 0 3612 4051">
  <defs>
    <style>
      .cls-1 {
        fill-rule: evenodd;
        fill: url(#linear-gradient);
      }
    </style>
    <linearGradient id="linear-gradient" x1="1805.89" y1="4050.5" x2="1805.89" y2="-0.094" gradientUnits="userSpaceOnUse">
      <stop offset="0" stop-color="#399b3a"/>
      <stop offset="1" stop-color="#40e042"/>
    </linearGradient>
  </defs>
  <path id="Градиентная_заливка_1" data-name="Градиентная заливка 1" class="cls-1" d="M1758,0c503.48-3.256,945.71,68.678,1333,186,135.28,40.982,266.41,78.67,392,128q61.5,23,123,46c11.74,171.607,2,355.671,2,532v684c0,163.38,10.62,342.34-16,484q-1.995,23.505-4,47c-28.47,140.55-51,273.31-98,394-37.64,96.64-72.97,195.13-123,281s-96.79,171.67-153,251c-152.85,215.69-335.06,405.35-545,564-190.44,143.92-394.16,265.24-629,367-54.68,23.69-110.99,42.82-169,65-15.15,5.79-53.46,24.87-73,21q-24-8.505-48-17c-49.36-17.94-97.42-34.79-144-54-160.15-66.03-306.78-141.37-445-228C626.135,3415.77,196.7,2921.78,38,2210c-16.831-75.49-18.478-154.26-32-235q-2.5-47.49-5-95,0.5-103.485,1-207V1131c0-33.27,6.342-102.42-2-129L1,363c61.747-28.642,129.136-48.338,195-74C414.119,204.017,652.335,150.33,898,92c87.3-20.729,177.43-27.357,267-46,91.26-18.995,188.39-16.494,283-32l96-7Zm-11,142-128,5-96,6-220,21c-96.63,17.377-193.38,22.669-287,42-194.58,40.178-381.862,81.273-559,135-80.792,24.5-158.685,47.4-234,77-24.673,9.7-63.574,14.28-81,32V1520c0,241.34-9.55,490.8,39,685,26.21,104.84,51.747,205.36,89,299,166.475,418.45,438.232,751.27,776,999,108.78,79.78,222.86,150.8,343,221,68.15,39.82,141.98,68.45,216,102,47.64,21.59,96.46,42.03,149,59,14.89,4.81,36.07,20.61,56,17q25.5-9.495,51-19c37.89-14.96,76.11-29.22,112-44a2615.677,2615.677,0,0,0,397-204c485.62-304.43,889.79-752.44,1047-1384,20.3-81.57,26.94-166.47,42-256q4.005-63.99,8-128V1544q0.495-399.465,1-799V540q-0.495-41-1-82-44.49-16.5-89-33c-89.53-35.086-184.45-60.889-280-90C2705.07,215.286,2255.18,142.194,1747,142Zm-13,166c338.63-1.89,645.68,23.141,921,88,103.69,24.426,203.45,41.7,300,71,83.52,25.345,166.51,48.7,246,74,31.94,10.165,84.68,17.58,102,43q-0.495,473.452-1,947c0.01,236.12,6.07,474-41,662-62.24,248.58-155.61,460.64-284,643-39.3,55.82-82.46,108.09-124,161-53.21,67.77-113.03,138.05-180,192q-28.995,27.99-58,56c-47.89,38.5-93.03,79.35-143,116-146.18,107.21-298.1,201.21-471,284-43.5,20.83-88.74,38.58-135,58q-30,11.505-60,23c-19.89-1.44-39.63-13.25-56-20-43.43-17.9-85.69-35.77-127-54-157.9-69.67-301.06-156.17-433-252-343.394-249.41-611.826-562.78-778-990-38.182-98.16-60.188-206-83-319-32.757-162.26-20-369.39-20-558V581c8.159-16.05,59.8-27.618,80-34,75.406-23.818,151.205-45.981,230-70,113.471-34.589,235.2-58.318,356-87l187-33,191-25c86.64-14.909,179.01-6.552,268-21ZM3474,885q0.495,10,1,20Q3474.505,895,3474,885Zm-644,216c-142.89,126.29-283.34,256.53-432,377-91.06,73.79-173.61,158.05-267,230-22.52,17.35-41.57,41.17-64,59q-143.985,122.985-288,246c-16.86-6.47-29.48-26.16-43-37l-100-88q-154.485-135.48-309-271h-4q-121.995,143.49-244,287v2q387.465,343.965,775,688h2q87.495-132.48,175-265,188.475-287.475,377-575c31.39-49.84,70.21-97.26,101-147,55.78-90.12,114.76-176.37,173-263,8.78-13.06,36.97-70.74,50-70-0.66-12.16,11.47-31.26,19-40,0.69-.8,6-1,6-1v-8q7.995-10.005,16-20c9.08-12.44,13.82-25.13,22-39,12.43-21.07,34.15-39.06,41-64h-2C2832.67,1101.67,2831.33,1101.33,2830,1101Z"/>
</svg>
