<svg width="72" height="73" viewBox="0 0 72 73" fill="none" xmlns="http://www.w3.org/2000/svg">
<path d="M61.4211 10.9925C54.6238 4.22428 45.599 0.499329 36.0007 0.499329H35.9496C31.0552 0.50592 26.3057 1.48536 21.8321 3.40963C17.5182 5.26579 13.6521 7.91352 10.3408 11.2803C3.52868 18.2062 -0.142438 27.3397 0.00423077 36.9979C0.0926715 42.8619 1.63627 48.6671 4.46637 53.7846C4.51965 53.8807 4.53229 53.9884 4.50153 54.0807L0.36074 66.4811C-0.171003 68.0741 0.211874 69.8253 1.36051 71.0514C2.23777 71.9886 3.45012 72.5 4.69873 72.5C5.0871 72.5 5.47877 72.4506 5.86439 72.3495L19.8606 68.6723C19.943 68.6509 20.0319 68.6602 20.111 68.6992C25.0868 71.1476 30.4328 72.389 35.9996 72.389C45.6084 72.389 54.6546 68.6289 61.4728 61.8014C68.2756 54.9887 72.0142 45.9645 72 36.3914C71.9868 26.7921 68.2294 17.7716 61.4211 10.9925ZM52.6809 27.5754L34.2649 45.9919C33.1876 47.0697 31.772 47.6086 30.3564 47.6086C28.9408 47.6086 27.5252 47.0697 26.4475 45.9919L19.3195 38.8634C18.4955 38.04 18.4955 36.704 19.3195 35.8806C20.1429 35.0566 21.4789 35.056 22.3023 35.8806L29.4303 43.0086C29.9406 43.5189 30.7712 43.5189 31.282 43.0086L49.6975 24.592C50.5215 23.7686 51.8569 23.7686 52.6809 24.592C53.5049 25.416 53.5049 26.752 52.6809 27.5754Z" fill="url(#paint0_linear)"/>
<path fill-rule="evenodd" clip-rule="evenodd" d="M36.0044 5.5C18.8836 5.5 5.00439 19.3792 5.00439 36.5C5.00439 43.0586 7.03948 49.1374 10.5126 54.1451L10.9617 54.7926L6.89608 65.5606L6.88311 65.5909C6.84637 65.6766 6.81689 65.8061 6.81689 65.9531C6.81689 65.9633 6.81704 65.9733 6.81731 65.9831C7.69821 65.7 8.93871 65.3414 10.2905 64.9506C11.0928 64.7186 11.9344 64.4753 12.7632 64.2298C15.2271 63.4998 17.5727 62.7519 18.8651 62.1431L19.5836 61.8045L20.2675 62.2086C25.0515 65.0356 30.395 67.5 36.0044 67.5C53.1252 67.5 67.0044 53.6208 67.0044 36.5C67.0044 19.3792 53.1252 5.5 36.0044 5.5ZM2.00439 36.5C2.00439 17.7223 17.2267 2.5 36.0044 2.5C54.7821 2.5 70.0044 17.7223 70.0044 36.5C70.0044 55.2777 54.7821 70.5 36.0044 70.5C29.8482 70.5 24.1671 67.93 19.4059 65.1798C17.8558 65.8162 15.6766 66.4955 13.6154 67.1062C12.7191 67.3717 11.8419 67.6252 11.0257 67.8611C9.57115 68.2815 8.31004 68.6459 7.47874 68.923C6.80575 69.1474 6.08187 69.1549 5.41871 68.8371C4.77753 68.5299 4.37398 68.0052 4.14246 67.5036C3.70733 66.5608 3.71998 65.3838 4.11109 64.4437L7.60238 55.1968C4.06401 49.8321 2.00439 43.4045 2.00439 36.5Z" fill="white"/>
<defs>
<linearGradient id="paint0_linear" x1="35.9999" y1="72.4998" x2="35.9999" y2="0.499543" gradientUnits="userSpaceOnUse">
<stop stop-color="#399B3A"/>
<stop offset="1" stop-color="#40E042"/>
</linearGradient>
</defs>
</svg>
