<svg width="36" height="36" viewBox="0 0 36 36" fill="none" xmlns="http://www.w3.org/2000/svg">
<path fill-rule="evenodd" clip-rule="evenodd" d="M13.9353 2.70547e-06C13.784 1.61794 13.6326 3.23605 13.4812 4.85433H13.465C12.717 4.57502 11.8624 4.00836 11.5838 3.26275C10.9145 1.47212 12.2302 -0.00230509 13.9353 2.70547e-06ZM17.4382 2.49879L21.0222 2.80119C21.0517 2.26228 21.0293 1.56642 20.8924 1.06636C20.8114 0.817015 20.7303 0.567667 20.6492 0.318319C20.6545 0.313019 20.66 0.307703 20.6654 0.302403H20.6816L25.0116 3.215C25.6178 3.6251 26.4804 3.94102 26.7144 4.71109C26.8445 5.13922 26.6663 5.63674 26.4712 5.93661C26.2063 6.24962 25.9415 6.56263 25.6765 6.87564C25.2387 7.438 24.8008 8.00036 24.3629 8.56272C22.3468 11.2735 20.7299 14.1956 19.514 17.7143C19.213 18.5856 19.0442 19.5028 18.8004 20.4837C18.7527 20.6758 18.5617 21.3845 18.622 21.55C18.6232 21.23 18.7789 20.8825 18.8653 20.611C19.1458 19.7301 19.4193 18.9048 19.7572 18.1122C20.6993 15.9026 21.8642 13.9571 23.2115 12.1438C23.8983 11.2195 24.6788 10.3741 25.4008 9.48584C26.1306 8.73787 26.8604 7.98982 27.5901 7.24171C28.077 6.85495 28.5752 6.42987 28.7254 5.71379C28.9068 4.8487 28.0643 4.3854 27.6226 4.04262C26.52 3.10368 25.4172 2.16465 24.3143 1.22552C24.271 0.981479 24.2277 0.737436 24.1845 0.493393C25.9305 1.96281 27.6765 3.43237 29.4227 4.90208C29.6664 5.22436 29.7731 5.7828 29.6011 6.25492C29.3846 6.84858 28.7563 7.24315 28.3361 7.65552C27.4317 8.54308 26.4883 9.45241 25.6927 10.4408C23.6764 12.9456 21.6235 15.6287 20.4384 18.9239C20.0663 19.9583 19.7592 21.0239 19.4653 22.1548C18.7323 24.9766 19.0263 28.7126 20.1951 30.7971L20.1789 30.813C18.3465 28.7496 16.514 26.6858 14.6813 24.6218C13.0568 22.6441 11.1748 20.8655 9.55661 18.8762C8.55817 17.6487 7.39067 16.6667 6.73482 15.0882C5.92255 13.1333 6.2495 10.1713 6.84834 8.26032C7.21611 7.08667 7.60096 5.83513 8.19437 4.83841L8.2268 4.85433C8.38169 5.40242 8.81742 5.87968 9.18362 6.23901C10.0316 7.07109 11.0441 7.72925 12.2 8.26032C12.5021 8.3991 12.803 8.60356 13.1406 8.70596C13.0162 10.0268 12.8919 11.3479 12.7676 12.669C12.7099 12.9969 12.7412 14.0651 12.6054 14.2447C11.565 13.8601 10.8425 13.4708 10.6269 12.2711C10.5866 12.0462 10.5762 11.7164 10.6432 11.5071L10.6269 11.4912C9.42159 11.3905 8.21611 11.2897 7.01051 11.1888C6.69781 14.0519 8.39901 15.9526 10.2053 16.8549C10.7916 17.1477 11.5257 17.4579 12.3298 17.5074C12.2433 18.4304 12.1568 19.3535 12.0703 20.2768C12.5621 20.3193 13.0541 20.3617 13.546 20.4041C13.6325 19.4864 13.719 18.5686 13.8055 17.6507C17.1112 17.639 19.1828 16.1762 20.0978 13.8149C20.7017 12.2566 20.66 10.2393 19.8383 8.92878C19.0528 7.67589 17.7677 6.97056 16.4651 6.22309L14.8921 5.45913C15.0651 3.68206 15.2381 1.90479 15.411 0.127329H15.4272C16.6104 0.36925 17.4541 1.0596 17.4382 2.49879ZM28.2064 1.32102C29.4983 2.74268 30.7902 4.1645 32.0823 5.58646C32.4342 6.02792 33.1849 6.45546 32.958 7.3372C32.7717 8.0617 32.1597 8.39676 31.612 8.76962C30.7905 9.41681 29.9688 10.0641 29.147 10.7114C28.5234 11.1899 28.0243 11.8341 27.4118 12.3189C26.9883 12.654 26.5853 13.0806 26.2441 13.4966C25.9415 13.8149 25.6388 14.1333 25.336 14.4516C24.3971 15.6306 23.483 16.8078 22.6439 18.0963C21.4271 19.965 20.5068 22.18 19.9518 24.6695C19.759 25.5342 19.7929 26.4586 19.6437 27.3752C19.5954 27.6722 19.7842 28.2387 19.6437 28.4416H19.6275V28.4098C19.4342 27.9713 19.5197 27.4091 19.4329 26.8818C19.1893 25.4005 19.4929 23.5366 19.7735 22.2981C20.3951 19.5543 21.8175 17.4272 23.2926 15.502C23.5349 15.1859 23.842 14.9181 24.0872 14.6107C24.942 13.5393 25.8291 12.4505 26.909 11.6026C27.1631 11.3587 27.4172 11.1146 27.6712 10.8705C28.8395 9.95408 29.9525 8.97335 31.1742 8.10116C31.5434 7.83753 32.1679 7.38579 32.0499 6.68465C31.9101 5.85525 31.3308 5.56026 30.8985 5.0294C30.0067 4.04272 29.1147 3.05594 28.2226 2.06906C28.2173 1.81971 28.2119 1.57036 28.2064 1.32102ZM14.5353 9.40626C15.3286 9.51178 16.436 10.5608 16.6273 11.3002C16.7155 11.6415 16.6904 11.9794 16.6273 12.287C16.3901 13.4447 15.893 13.9992 14.7623 14.2765C14.5835 14.3204 14.2935 14.3893 14.0974 14.3561C14.2434 12.7062 14.3893 11.0563 14.5353 9.40626ZM29.0335 11.8414C29.2257 11.9735 29.3445 12.2003 29.4876 12.3825C29.8882 12.8938 30.2616 13.4251 30.6065 13.9741C32.4464 16.8859 33.4249 21.7523 32.0012 25.8314C30.4384 30.3093 27.1082 33.8017 22.4817 35.2536C21.7223 35.492 20.9314 35.6314 20.0978 35.8106L18.6869 35.9539C18.2317 36.0271 17.5888 36.0067 17.1625 35.9379C16.6351 35.8528 16.1766 35.9188 15.6867 35.8265C14.6853 35.6379 13.7218 35.4205 12.8649 35.1103C8.13389 33.3971 4.86301 30.0075 3.45894 25.0356C2.6084 22.0237 3.01281 18.5461 4.0752 15.9954C4.2807 15.502 4.76753 14.2245 5.1131 13.9423H5.12931C5.45604 16.8495 7.12565 17.7146 8.55115 19.481C11.0538 22.2713 13.5566 25.0619 16.0597 27.8527C16.8049 28.7688 17.6991 29.5716 18.4436 30.4947C18.6371 30.7346 19.2391 31.1977 19.3194 31.4656H19.3032C14.644 27.365 9.98421 23.2641 5.32392 19.1627H5.3077L5.1131 20.6906V21.6137C5.12391 21.9266 5.13472 22.2396 5.14553 22.5527C5.25211 23.1504 5.29296 23.7467 5.43744 24.3035C6.5862 28.73 9.55105 31.8672 13.8055 33.2482C16.1839 34.0202 19.5883 34.1791 21.9952 33.2482C23.4958 32.6679 24.7492 31.9816 25.9198 31.0995C28.0799 29.4715 29.6181 27.0297 30.3146 23.9692C30.5743 22.8282 30.7604 21.1696 30.5092 19.847C30.3865 19.2002 30.2953 18.5499 30.1038 17.9849C29.8169 17.139 29.5797 16.362 29.1632 15.6612C29.0717 15.5071 29.0301 15.3179 28.9037 15.1996C28.6713 15.3376 28.4389 15.4755 28.2064 15.6134C27.4744 16.0623 26.8347 16.5531 26.1792 17.0618C23.6117 19.0546 21.8058 21.9675 20.9249 25.6086C20.8168 26.2664 20.7086 26.9243 20.6005 27.5821C20.5734 28.0119 20.5464 28.4416 20.5194 28.8713C20.5357 29.4707 20.5519 30.0702 20.5681 30.6698C20.5627 30.6591 20.5572 30.6486 20.5519 30.638C20.4924 30.3197 20.4329 30.0013 20.3735 29.683C19.9938 27.7475 20.3242 25.4068 20.8276 23.8101C22.0015 20.0861 23.9872 17.3963 26.1792 14.7062L28.0767 12.7008C28.3955 12.4143 28.7144 12.1279 29.0335 11.8414Z" fill="url(#paint0_linear)"/>
<defs>
<linearGradient id="paint0_linear" x1="18.0002" y1="35.9997" x2="18.0002" y2="4.2915e-06" gradientUnits="userSpaceOnUse">
<stop stop-color="#2E3FD1"/>
<stop offset="1" stop-color="#2D85DD"/>
</linearGradient>
</defs>
</svg>
